<?xml version="1.0" encoding="UTF-8"?>
<svg width="1535px" height="1612px" viewBox="0 0 1535 1612" version="1.1" xmlns="http://www.w3.org/2000/svg" xmlns:xlink="http://www.w3.org/1999/xlink">
    <!-- Generator: Sketch 54.1 (76490) - https://sketchapp.com -->
    <title>Group Copy</title>
    <desc>Created with Sketch.</desc>
    <defs>
        <linearGradient x1="50%" y1="0%" x2="50%" y2="100%" id="linearGradient-1">
            <stop stop-color="#A7A7EE" stop-opacity="0" offset="0%"></stop>
            <stop stop-color="#4C55A0" stop-opacity="0.2" offset="100%"></stop>
        </linearGradient>
        <path d="M100.390734,1131.11114 C87.8007722,1151.83873 70,1216.21432 70,1232.90061 C70,1249.5869 123.461004,1231.18545 133.654054,1188.10505 C143.847104,1145.02465 154,1160.19118 154,1137.81357 C154,1115.43595 112.980695,1110.38354 100.390734,1131.11114 Z" id="path-2"></path>
        <linearGradient x1="50%" y1="0%" x2="50%" y2="100%" id="linearGradient-3">
            <stop stop-color="#A7A7EE" stop-opacity="0" offset="0%"></stop>
            <stop stop-color="#4C55A0" stop-opacity="0.2" offset="100%"></stop>
        </linearGradient>
        <path d="M321.343742,1129.87947 C311.650185,1154.09817 323.877779,1210.13513 347.118019,1235.83465 C370.358259,1261.53418 393.72885,1210.70591 385.20685,1199.34101 C376.684851,1187.97611 356.515344,1165.70007 356.515344,1135.21499 C356.515344,1104.72991 331.0373,1105.66077 321.343742,1129.87947 Z" id="path-4"></path>
        <linearGradient x1="50%" y1="0%" x2="50%" y2="100%" id="linearGradient-5">
            <stop stop-color="#A7A7EE" stop-opacity="0" offset="0%"></stop>
            <stop stop-color="#4C55A0" stop-opacity="0.2" offset="100%"></stop>
        </linearGradient>
        <linearGradient x1="40.6248555%" y1="45.0846073%" x2="62.0030322%" y2="50%" id="linearGradient-6">
            <stop stop-color="#464D89" stop-opacity="0.6" offset="0%"></stop>
            <stop stop-color="#A7A7EE" stop-opacity="0" offset="100%"></stop>
        </linearGradient>
        <path d="M275.710259,440.354487 C300.949208,471.268635 278.624062,561.258644 295.540283,583.213635 C313.860946,604.757168 352.399293,629.750725 370.284218,673.844707 C387.700036,718.4644 267.056227,627.084542 255.880235,610.863792 C243.272959,593.30314 251.418662,410.157359 275.710259,440.354487 Z" id="path-7"></path>
        <linearGradient x1="50%" y1="0%" x2="50%" y2="100%" id="linearGradient-8">
            <stop stop-color="#403F9F" stop-opacity="0" offset="0%"></stop>
            <stop stop-color="#000000" stop-opacity="0.2" offset="100%"></stop>
        </linearGradient>
        <path d="M125.14,614.082143 C85.5658765,686.266964 67,787.290432 67,867.553524 C67,921.062252 75.04674,1008.77416 91.14022,1130.68925 C94.6382558,1140.89642 105.164682,1146 122.719498,1146 C140.274314,1146 150.687622,1140.89642 153.959424,1130.68925 C162.598769,1033.8476 166.918442,970.3316 166.918442,940.14125 C166.918442,894.855725 191.843041,736.702026 204.423677,736.702026 C217.004313,736.702026 246.09745,864.953022 262.633968,940.14125 C273.658314,990.266735 290.579698,1053.78274 313.398122,1130.68925 C315.700516,1140.89642 325.357806,1146 342.369994,1146 C359.382181,1146 369.592184,1140.89642 373,1130.68925 C365.424301,940.265829 355.214299,817.581898 342.369994,762.637464 C325.162724,689.029458 282.73,614.082143 282.73,614.082143 C282.73,614.082143 164.714124,541.897321 125.14,614.082143 Z" id="path-9"></path>
        <linearGradient x1="50%" y1="0%" x2="50%" y2="100%" id="linearGradient-10">
            <stop stop-color="#403F9F" stop-opacity="0" offset="0%"></stop>
            <stop stop-color="#000000" stop-opacity="0.2" offset="100%"></stop>
        </linearGradient>
        <path d="M144.723745,468.542857 C68.140138,456.763895 -44.2978265,360.549587 18.2970349,236.051024 C80.8918963,111.552461 181.295733,183.917746 239.149547,77.2587562 C297.003361,-29.4002333 433.546986,-15.9345635 499.238056,58.856203 C564.929126,133.64697 564.929126,249.928083 458.912169,358.698961 C352.895211,467.469839 221.307353,480.321819 144.723745,468.542857 Z" id="path-11"></path>
        <linearGradient x1="0%" y1="35.4967527%" x2="100%" y2="64.5032473%" id="linearGradient-13">
            <stop stop-color="#000000" stop-opacity="0.3" offset="0%"></stop>
            <stop stop-color="#1F1845" stop-opacity="0" offset="100%"></stop>
        </linearGradient>
        <path d="M529.79972,252.652235 C516.315713,287.684708 493.138833,323.583217 458.912169,358.698961 C390.880824,428.497504 312.31984,458.798363 244.520523,468.438782 C173.181184,450.911903 120.540992,410.474858 130.30712,334.401503 C154.025326,149.648268 414.414539,441.583468 529.79972,252.652235 L529.79972,252.652235 Z" id="path-14"></path>
        <linearGradient x1="50%" y1="0%" x2="50%" y2="100%" id="linearGradient-16">
            <stop stop-color="#A7A7EE" stop-opacity="0" offset="0%"></stop>
            <stop stop-color="#4C55A0" stop-opacity="0.2" offset="100%"></stop>
        </linearGradient>
        <path d="M125.564173,613.536511 C141.756547,581.479319 144.10225,587.101754 131.709983,552.362438 C122.004771,516.73381 107.112394,514.110697 99.4444788,471.306791 C94.2778844,429.341659 134.805924,386.072254 187.022277,411.66207 C238.219299,437.421134 232.591296,420.729151 263.844907,434.602347 C295.24338,449.678081 289.829499,482.598822 276.136528,515.657994 C261.623515,548.771842 261.145588,580.839361 283.818791,613.536511 C304.271502,646.473691 110.277495,645.833732 125.564173,613.536511 Z" id="path-17"></path>
        <linearGradient x1="50%" y1="0%" x2="50%" y2="100%" id="linearGradient-18">
            <stop stop-color="#FFC62C" stop-opacity="0" offset="0%"></stop>
            <stop stop-color="#FF6663" stop-opacity="0.1" offset="100%"></stop>
        </linearGradient>
        <path d="M198.5,367 L212.5,367 C220.508129,367 227,373.491871 227,381.5 L227,433.5 C227,441.508129 220.508129,448 212.5,448 L198.5,448 C190.491871,448 184,441.508129 184,433.5 L184,381.5 C184,373.491871 190.491871,367 198.5,367 Z" id="path-19"></path>
        <linearGradient x1="50%" y1="0%" x2="50%" y2="100%" id="linearGradient-20">
            <stop stop-color="#FFC62C" stop-opacity="0" offset="0%"></stop>
            <stop stop-color="#FF6663" stop-opacity="0.1" offset="100%"></stop>
        </linearGradient>
        <path d="M118.458939,349.536632 C112.856758,349.157723 106.979102,343.670642 106.979102,329.197224 C106.979102,310.407414 93,304.500432 93,291.948562 C93,279.396692 106.268768,274.246387 113.120357,282.573213 C119.216746,268.743652 129.863869,273.641306 175.821394,261.335327 C221.778918,249.029349 239.753299,214.986406 277.801383,231.375666 C278.048934,238.608906 277.801057,261.924474 277.801383,269.918314 C277.801057,277.136042 287,286.681256 287,320.420616 C287,353.847269 251.659628,400 211.877959,400 C183.056738,400 136.373478,383.397152 118.458939,349.536632 L118.458939,349.536632 Z" id="path-21"></path>
        <linearGradient x1="100%" y1="43.1662075%" x2="0%" y2="56.8337925%" id="linearGradient-22">
            <stop stop-color="#000000" stop-opacity="0.2" offset="0%"></stop>
            <stop stop-color="#FFC42C" stop-opacity="0" offset="100%"></stop>
        </linearGradient>
        <linearGradient x1="50%" y1="0%" x2="50%" y2="100%" id="linearGradient-23">
            <stop stop-color="#A7A7EE" stop-opacity="0" offset="0%"></stop>
            <stop stop-color="#4C55A0" stop-opacity="0.2" offset="100%"></stop>
        </linearGradient>
        <path d="M119.254621,507.330804 C74.7164151,485.641597 113.019458,345.770615 119.254621,292.854463 C125.489784,239.938311 134.503245,154.056542 134.503245,136.378853 C134.503245,118.701164 170,115.768912 170,136.378853 C170,156.988794 163.792827,252.813094 163.792827,292.854463 C163.792827,332.895832 163.792827,529.020012 119.254621,507.330804 Z" id="path-24"></path>
        <linearGradient x1="50%" y1="0%" x2="50%" y2="100%" id="linearGradient-25">
            <stop stop-color="#FFC62C" stop-opacity="0" offset="0%"></stop>
            <stop stop-color="#FF6663" stop-opacity="0.1" offset="100%"></stop>
        </linearGradient>
        <path d="M133.837021,133.790337 C133.837021,115.266947 122.20112,102.158402 95.2439555,105.7933 C68.286791,109.428198 53.3474415,115.052078 57.7684721,105.7933 C59.9371451,101.25154 72.3575808,92.6374364 98.3487474,88.5587672 C104.570315,87.5824464 117.909428,88.2070174 138.366085,90.4324803 C149.78184,86.3788858 159.558071,85.7543147 167.694777,88.5587672 C179.899836,92.7654459 197.08607,78.7582948 205.082141,88.5587672 C213.078212,98.3592396 166.158036,101.367726 167.694777,111.645472 C169.231517,121.923218 169.231517,130.886417 169.231517,138.553936 C169.231517,146.221454 133.837021,152.313727 133.837021,133.790337 Z" id="path-26"></path>
        <linearGradient x1="50%" y1="0%" x2="50%" y2="100%" id="linearGradient-27">
            <stop stop-color="#FFC62C" stop-opacity="0" offset="0%"></stop>
            <stop stop-color="#FF6663" stop-opacity="0.1" offset="100%"></stop>
        </linearGradient>
        <path d="M343.086123,676.720976 C363.768641,693.331367 377.310274,693.176571 370.52976,716.118865 C363.749246,739.061159 349.194053,740.026492 355.618916,747.694222 C362.043779,755.361951 377.435851,726.918011 394.228739,723.138418 C411.021626,719.358826 460.962153,726.087209 468.097062,716.118865 C475.23197,706.150521 462.333635,702.864659 428.886195,699.030383 C395.438755,695.196107 362.673604,656.171952 352.654478,644.39435 C345.708847,636.229679 329.904478,666.134631 343.086123,676.720976 Z" id="path-28"></path>
        <linearGradient x1="100%" y1="60.4384792%" x2="0%" y2="41.2385073%" id="linearGradient-29">
            <stop stop-color="#000000" stop-opacity="0.2" offset="0%"></stop>
            <stop stop-color="#FFC42C" stop-opacity="0" offset="100%"></stop>
        </linearGradient>
        <linearGradient x1="50%" y1="0%" x2="50%" y2="100%" id="linearGradient-30">
            <stop stop-color="#FEEC80" stop-opacity="0" offset="0%"></stop>
            <stop stop-color="#FFC42D" stop-opacity="0.7" offset="100%"></stop>
        </linearGradient>
        <path d="M131.515748,164.238806 C157.171916,130.094562 170,103.785005 170,85.3101364 C170,38.1946491 131.944204,0 85,0 C38.0557963,0 0,38.1946491 0,85.3101364 C0,105.446471 12.828084,131.756027 38.484252,164.238806 L131.515748,164.238806 Z" id="path-31"></path>
        <linearGradient x1="50%" y1="0%" x2="50%" y2="100%" id="linearGradient-32">
            <stop stop-color="#D6DFEA" stop-opacity="0" offset="0%"></stop>
            <stop stop-color="#B6C5D9" stop-opacity="0.1" offset="100%"></stop>
        </linearGradient>
        <path d="M100.678957,236.19626 C100.678957,244.924425 93.6033815,252 84.8752169,252 L83.8747831,252 C75.1466185,252 68.0710432,244.924425 68.0710432,236.19626 C51.5273129,236.167096 38.125,222.746817 38.125,206.19626 L38.125,164.238806 L130.625,164.238806 L130.625,206.19626 C130.625,222.746817 117.222687,236.167096 100.678946,236.196213 Z M100.625,236.19626 L68.125,236.19626 L100.625,236.19626 Z" id="path-33"></path>
        <linearGradient x1="50%" y1="0%" x2="50%" y2="100%" id="linearGradient-34">
            <stop stop-color="#B6C5D9" stop-opacity="0" offset="0%"></stop>
            <stop stop-color="#403F9F" stop-opacity="0.05" offset="100%"></stop>
        </linearGradient>
        <path d="M37.2126866,178.029851 L133.412313,178.029851 C138.086126,178.029851 141.875,181.818725 141.875,186.492537 L141.875,186.492537 C141.875,191.16635 138.086126,194.955224 133.412313,194.955224 L37.2126866,194.955224 C32.5388738,194.955224 28.75,191.16635 28.75,186.492537 L28.75,186.492537 C28.75,181.818725 32.5388738,178.029851 37.2126866,178.029851 Z" id="path-35"></path>
        <path d="M37.2126866,205.61194 L133.412313,205.61194 C138.086126,205.61194 141.875,209.400814 141.875,214.074627 L141.875,214.074627 C141.875,218.74844 138.086126,222.537313 133.412313,222.537313 L37.2126866,222.537313 C32.5388738,222.537313 28.75,218.74844 28.75,214.074627 L28.75,214.074627 C28.75,209.400814 32.5388738,205.61194 37.2126866,205.61194 Z" id="path-36"></path>
    </defs>
    <g id="landing-page" stroke="none" stroke-width="1" fill="none" fill-rule="evenodd">
        <g id="Desktop-Copy-13" transform="translate(-152.000000, -154.000000)">
            <g id="Group-Copy" transform="translate(152.000000, 154.000000)">
                <g id="Spot-01">
                    <path d="M476.688441,1612 C259.205624,1612 34.0013157,1395.55237 182.142283,1060.00018 C328.971197,724.154835 110.022009,637.075906 19.4824642,431.028277 C-73.4748377,226.775188 168.616297,-183.405559 694.300901,92.3510977 C912.163277,206.870326 1061.47423,250.860315 1236.34519,220 C1735,132 1276.69908,780.640767 1356.26749,917.773537 C1626.78563,1384 1590.13234,1612 1236.34519,1612 C881.922949,1612 693.706652,1612 476.688441,1612 Z" id="Details" fill="#F2F5F9"></path>
                    <ellipse id="Details" fill="#E2EAF5" cx="400.306825" cy="571.685751" rx="110.199702" ry="110.235369"></ellipse>
                    <ellipse id="Details" fill="#E2EAF5" cx="263.454172" cy="840.86514" rx="76.8835132" ry="76.9083969"></ellipse>
                    <ellipse id="Details" fill="#E2EAF5" cx="164.530718" cy="650.645038" rx="54.8435727" ry="54.8613232"></ellipse>
                </g>
                <g id="Girl-Jumping" transform="translate(589.000000, 266.000000)">
                    <path d="M7.70351171,1311.42651 C26.7207413,1282.08313 197.740587,1265 315.36769,1265 C433.224215,1265 514.918584,1295.43612 408.935662,1315.54025 C303.567045,1335.65242 -9.78349226,1340.6877 7.70351171,1311.42651 Z" id="Sh" fill="#F0F0F6"></path>
                    <g id="Ler-L">
                        <use fill="#A7A7EE" xlink:href="#path-2"></use>
                        <use fill="url(#linearGradient-1)" xlink:href="#path-2"></use>
                    </g>
                    <g id="Leg-R">
                        <use fill="#A7A7EE" xlink:href="#path-4"></use>
                        <use fill="url(#linearGradient-3)" xlink:href="#path-4"></use>
                    </g>
                    <g id="Hand-R">
                        <use fill="#A7A7EE" xlink:href="#path-7"></use>
                        <use fill="url(#linearGradient-5)" xlink:href="#path-7"></use>
                        <use fill="url(#linearGradient-6)" xlink:href="#path-7"></use>
                    </g>
                    <g id="Legs">
                        <use fill="#464D89" xlink:href="#path-9"></use>
                        <use fill="url(#linearGradient-8)" xlink:href="#path-9"></use>
                    </g>
                    <g id="Hair">
                        <mask id="mask-12" fill="white">
                            <use xlink:href="#path-11"></use>
                        </mask>
                        <g>
                            <use fill="#464D89" xlink:href="#path-11"></use>
                            <use fill="url(#linearGradient-10)" xlink:href="#path-11"></use>
                        </g>
                        <mask id="mask-15" fill="white">
                            <use xlink:href="#path-14"></use>
                        </mask>
                        <use id="Sh" fill="url(#linearGradient-13)" xlink:href="#path-14"></use>
                    </g>
                    <g id="Body">
                        <use fill="#A7A7EE" xlink:href="#path-17"></use>
                        <use fill="url(#linearGradient-16)" xlink:href="#path-17"></use>
                    </g>
                    <g id="Nack">
                        <use fill="#FFC62C" xlink:href="#path-19"></use>
                        <use fill="url(#linearGradient-18)" xlink:href="#path-19"></use>
                    </g>
                    <g id="Face">
                        <use fill="#FFC62C" xlink:href="#path-21"></use>
                        <use fill="url(#linearGradient-20)" xlink:href="#path-21"></use>
                    </g>
                    <path d="M226.708159,274.829331 C199.339715,289.314496 134.961116,298.402446 112,266.018612 C119.537836,260.610401 135.381632,272.184955 174.912082,261.537429 C220.868696,249.159016 238.842721,214.915693 276.890052,231.401422 C277.088836,237.244031 276.968156,253.518172 276.913067,263.866603 C267.608094,263.919416 254.076603,260.344166 226.708159,274.829331 Z" id="Sh" fill="url(#linearGradient-22)"></path>
                    <g id="Hand-L">
                        <use fill="#A7A7EE" xlink:href="#path-24"></use>
                        <use fill="url(#linearGradient-23)" xlink:href="#path-24"></use>
                    </g>
                    <g id="Hand-L">
                        <use fill="#FFC62C" xlink:href="#path-26"></use>
                        <use fill="url(#linearGradient-25)" xlink:href="#path-26"></use>
                    </g>
                    <g id="Hand-R">
                        <use fill="#FFC62C" xlink:href="#path-28"></use>
                        <use fill="url(#linearGradient-27)" xlink:href="#path-28"></use>
                    </g>
                    <path d="M184,398 C194.08137,400.657876 203.816211,401.979133 212.047305,401.979133 C217.12922,401.979133 222.136327,401.244279 227,399.898184 L227,413.919051 C222.136327,415.265146 217.12922,416 212.047305,416 C203.816211,416 194.08137,414.678743 184,412.020867 L184,398 L184,398 Z" id="Sh" fill="url(#linearGradient-29)"></path>
                </g>
                <g id="Detail" transform="translate(625.000000, 14.000000)">
                    <g>
                        <use fill="#FEEC80" xlink:href="#path-31"></use>
                        <use fill="url(#linearGradient-30)" xlink:href="#path-31"></use>
                    </g>
                    <g>
                        <use fill="#D6DFEA" xlink:href="#path-33"></use>
                        <use fill="url(#linearGradient-32)" xlink:href="#path-33"></use>
                    </g>
                    <g>
                        <use fill="#B6C5D9" xlink:href="#path-35"></use>
                        <use fill="url(#linearGradient-34)" xlink:href="#path-35"></use>
                    </g>
                    <g>
                        <use fill="#B6C5D9" xlink:href="#path-36"></use>
                        <use fill="url(#linearGradient-34)" xlink:href="#path-36"></use>
                    </g>
                    <polygon fill="#FFFFFF" points="69.375 152.328358 101.875 152.328358 101.875 164.238806 69.375 164.238806"></polygon>
                    <path d="M98.3857415,149.595787 L111.026278,70.0209836 L99.5103989,60.6553357 L88.4103851,67.1662121 C86.2924356,68.4085266 83.6669094,68.389621 81.5669536,67.1169347 L70.490875,60.4042347 L58.973718,69.9953811 L71.6183217,149.595787 L98.3857415,149.595787 Z M68.3520444,57.8193342 C69.4489796,56.9058391 71.0021522,56.789234 72.2223937,57.5287661 L83.2984722,64.2414661 C84.3484502,64.8778092 85.6612133,64.887262 86.720188,64.2661048 L97.8202018,57.7552283 C99.0233833,57.0494845 100.536493,57.1651758 101.619167,58.0456945 L113.135046,67.4113424 C114.064778,68.1674755 114.521561,69.3639291 114.333203,70.5496806 L101.243,152.955224 L68.761063,152.955224 L55.6667934,70.5240781 C55.4806203,69.3520796 55.9246515,68.168498 56.8348873,67.4104806 L68.3520444,57.8193342 Z" fill="#FFFFFF" fill-rule="nonzero"></path>
                </g>
            </g>
        </g>
    </g>
</svg>