<?xml version="1.0" encoding="UTF-8"?>
<svg width="512px" height="512px" viewBox="0 0 512 512" version="1.1" xmlns="http://www.w3.org/2000/svg" xmlns:xlink="http://www.w3.org/1999/xlink">
    <!-- Generator: Sketch 54.1 (76490) - https://sketchapp.com -->
    <title>Group</title>
    <desc>Created with Sketch.</desc>
    <g id="logo" stroke="none" stroke-width="1" fill="none" fill-rule="evenodd">
        <g id="logo-v1-copy-9" transform="translate(-256.000000, -256.000000)" fill-rule="nonzero">
            <g id="Group" transform="translate(256.000000, 256.000000)">
                <g id="certificate-solid" fill="#3273DC">
                    <path d="M458.621968,255.920444 L504.606968,210.915444 C518.314968,197.938444 511.922968,174.876444 493.942968,170.576444 L431.292968,154.586444 L448.953968,92.5714441 C453.944968,74.7334441 437.124968,57.9084441 419.292968,62.9004441 L357.298968,80.5674441 L341.314968,17.8964441 C337.084968,0.197444115 313.764968,-6.27555589 300.989968,7.22844411 L255.999968,53.5704441 L211.010968,7.22944411 C198.380968,-6.12155589 174.963968,-0.00455588529 170.685968,17.8974441 L154.701968,80.5684441 L92.7069684,62.9014441 C74.8699684,57.9074441 58.0559684,74.7384441 63.0459684,92.5724441 L80.7069684,154.587444 L18.0569684,170.577444 C0.0689683581,174.878444 -6.31003164,197.944444 7.39196836,210.915444 L53.3769684,255.920444 L7.39196836,300.924444 C-6.31603164,313.901444 0.0759683581,336.963444 18.0559684,341.263444 L80.7059684,357.253444 L63.0449684,419.268444 C58.0539684,437.106444 74.8739684,453.931444 92.7059684,448.939444 L154.699968,431.272444 L170.683968,493.943444 C175.122968,512.518444 198.379968,517.961444 211.008968,504.611444 L255.999968,458.610444 L300.988968,504.611444 C313.488968,518.099444 336.975968,512.097444 341.313968,493.943444 L357.297968,431.272444 L419.291968,448.939444 C437.127968,453.933444 453.942968,437.102444 448.952968,419.268444 L431.291968,357.253444 L493.941968,341.263444 C511.928968,336.961444 518.307968,313.896444 504.605968,300.924444 L458.621968,255.920444 L458.621968,255.920444 Z" id="Path"></path>
                </g>
                <g id="check-solid" transform="translate(132.000000, 164.000000)" fill="#FFFFFF">
                    <path d="M84.5714493,181.783781 L3.64637026,100.970646 C-1.21545675,96.1155441 -1.21545675,88.2435483 3.64637026,83.387961 L21.2529246,65.8052762 C26.1147516,60.949689 33.9981382,60.949689 38.8599652,65.8052762 L93.3749696,120.244384 L210.140035,3.64132622 C215.001862,-1.21377541 222.885248,-1.21377541 227.747075,3.64132622 L245.35363,21.224011 C250.215457,26.0791126 250.215457,33.9511084 245.35363,38.8066957 L102.17849,181.784266 C97.3161766,186.639368 89.4332763,186.639368 84.5714493,181.783781 L84.5714493,181.783781 Z" id="Path"></path>
                </g>
            </g>
        </g>
    </g>
</svg>